<svg xmlns="http://www.w3.org/2000/svg" width="800" height="800" viewBox="0 0 800 800" fill="none"><path d="M792.352 340.073L459.927 7.64692C449.734 -2.54839 433.187 -2.55151 422.991 7.64692C397.247 33.3907 373.191 60.0266 351.041 87.1641C351.025 87.1844 351.008 87.2047 350.992 87.2251C290.22 161.691 243.92 239.953 217.427 314.134C198.27 367.773 190.502 416.498 193.936 458.322C189.97 462.289 35.7 616.559 30.625 621.633C-10.2047 662.463 -10.211 728.544 30.625 769.378C71.4515 810.206 137.534 810.209 178.369 769.377L341.687 606.056C389.716 609.998 440.473 598.784 485.869 582.573C560.055 556.078 638.327 509.773 712.797 448.992C712.802 448.988 712.809 448.983 712.814 448.978C739.958 426.823 766.602 402.763 792.352 377.009C802.544 366.817 802.55 350.27 792.352 340.073ZM141.433 732.439C121.017 752.853 87.9765 752.858 67.5593 732.439C47.1422 712.023 47.1437 678.984 67.5593 658.567L127.502 598.623L201.375 672.497L141.433 732.439ZM238.309 635.563L164.437 561.689L208.403 517.722C215.745 534.338 225.705 549.081 238.311 561.689C250.917 574.297 265.67 584.244 282.286 591.586L238.309 635.563ZM468.298 533.381C381.939 564.223 311.575 561.078 275.248 524.753C238.92 488.425 235.775 418.063 266.619 331.702C288.525 270.363 325.339 205.683 373.523 142.861L657.137 426.475C594.317 474.659 529.637 511.475 468.298 533.381ZM697.909 393.373L406.623 102.091C417.85 89.0047 429.541 76.0485 441.687 63.2797L736.719 358.309C723.95 370.456 710.994 382.147 697.909 393.373Z" fill="white"></path></svg>